<?xml version="1.0" encoding="UTF-8" standalone="no"?>
<!-- Created with Inkscape (http://www.inkscape.org/) -->

<svg
   version="1.1"
   id="svg1"
   width="72.530022"
   height="42.045101"
   viewBox="0 0 72.530022 42.045101"
   xmlns="http://www.w3.org/2000/svg"
   xmlns:svg="http://www.w3.org/2000/svg"
   class="snowbot-logo">
  <defs
     id="defs1" />
  <g
     id="g1"
     transform="translate(0.07467967,-1.2532806)">
    <path
      stroke="#c8dde1" fill="#13171f"
       style="fill:none;fill-opacity:1;stroke:#c8dde1;stroke-opacity:1"
       d="M 2.75,42.283746 0.6228171,41.149898 0.42553064,32.270779 0.79556954,22.5 18.014505,11.747681 35.99585,1.8125723 41.231208,4.1975212 C 44.317156,5.6033139 47.768398,8.5448889 47,8.0026267 46.280665,7.4949887 53.26523,12.204208 57.025705,14.197235 58.386567,14.918483 62.3125,17.258123 65.75,19.396434 71.831464,23.179434 73.418526,25 70.634859,25 c -0.750828,0 -2.605533,0.975692 -4.121566,2.168204 -2.160391,1.699364 -3.108547,1.927506 -4.384859,1.05507 -0.895638,-0.612223 -7.242287,-4.496277 -14.103663,-8.631232 l -12.475229,-7.5181 -4.524771,2.63167 C 28.536147,16.15303 22.5625,19.763646 17.75,22.729203 L 9,28.121125 v 7.439437 c 0,8.072768 0.3282183,7.719701 -6.25,6.723184 z"
       id="snowbot-logo" />
  </g>
</svg>
